<svg xmlns="http://www.w3.org/2000/svg" fill="none" viewBox="0 0 96 96" id="Microsoft-Azure--Streamline-Svg-Logos" height="48" width="48">
  <desc>
    Microsoft Azure Streamline Icon: https://streamlinehq.com
  </desc>
  <path fill="url(#a)" d="M32.337 3.71469h27.8154L31.2773 89.2687c-.6086 1.8026-2.299 3.0167-4.2015 3.0167H5.4285c-1.42626 0-2.76527-.6866-3.59719-1.8451-.831918-1.1585-1.054871-2.6468-.59895-3.9983L28.1344 6.73147c.6083-1.80342 2.2993-3.01785 4.2026-3.01785v.00107Z"></path>
  <path fill="#0078d4" d="M72.7569 61.0984H28.6483c-.8392-.0009-1.5935.5118-1.9014 1.2925-.3079.7807-.1066 1.6702.5073 2.2424l28.3431 26.4544c.8253.7698 1.9118 1.1976 3.0403 1.1976h24.976L72.7569 61.0984Z"></path>
  <path fill="url(#b)" d="M32.3372 3.71463c-1.9259-.00736-3.6327 1.23888-4.2122 3.07556L1.26568 86.3694c-.486761 1.3568-.281767 2.8656.54933 4.0434.83109 1.1777 2.18399 1.8765 3.62544 1.8726H27.6464c1.6838-.3008 3.0755-1.4843 3.6428-3.0979l5.3563-15.7858 19.1326 17.8454c.8017.6632 1.8075 1.0298 2.848 1.0383h24.883L72.5957 61.0986l-31.8139.0074L60.253 3.71463H32.3372Z"></path>
  <path fill="url(#c)" d="M67.864 6.72735c-.6074-1.80052-2.2959-3.01251-4.1961-3.01251H32.668c1.9001 0 3.5884 1.2122 4.1961 3.01251L63.7672 86.4411c.4563 1.3517.2336 2.8404-.5984 3.9993-.8319 1.1589-2.1711 1.8463-3.5977 1.8463h31.001c1.4264 0 2.7653-.6879 3.597-1.8467.8317-1.1589 1.0543-2.6474.5981-3.9989L67.864 6.72735Z"></path>
  <defs>
    <linearGradient id="a" x1="3489.32" x2="765.14" y1="660.161" y2="8708.09" gradientUnits="userSpaceOnUse">
      <stop stop-color="#114a8b"></stop>
      <stop offset="1" stop-color="#0669bc"></stop>
    </linearGradient>
    <linearGradient id="b" x1="4928.01" x2="4339.15" y1="4637.1" y2="4836.21" gradientUnits="userSpaceOnUse">
      <stop stop-opacity=".3"></stop>
      <stop offset=".071" stop-opacity=".2"></stop>
      <stop offset=".321" stop-opacity=".1"></stop>
      <stop offset=".623" stop-opacity=".05"></stop>
      <stop offset="1" stop-opacity="0"></stop>
    </linearGradient>
    <linearGradient id="c" x1="2356.33" x2="5329.61" y1="411.15" y2="8332.52" gradientUnits="userSpaceOnUse">
      <stop stop-color="#3ccbf4"></stop>
      <stop offset="1" stop-color="#2892df"></stop>
    </linearGradient>
  </defs>
</svg>